PathFileType	4	(X/Y/Z)	C:/Users/beibeiliu/ov580/test_trc\sequence.45_training_dense_right.trc
DataRate	CameraRate	NumFrames	NumMarkers	Units	OrigDataRate	OrigDataStartFrame	OrigNumFrames
120	120	21	19	mm	120	57	84
Frame#	Time	ThumbCMC			ThumbMCP			ThumbIP			ThumbTip			IndexMCP			IndexPIP			IndexTip			MiddleMCP			MiddlePIP			MiddleTip			RingMCP			RingPIP			RingTip			PinkyMCP			PinkyPIP			PinkyTip			BackHand1			BackHand2			BackHand3	
		X0	Y0	Z0	X1	Y1	Z1	X2	Y2	Z2	X3	Y3	Z3	X4	Y4	Z4	X5	Y5	Z5	X6	Y6	Z6	X7	Y7	Z7	X8	Y8	Z8	X9	Y9	Z9	X10	Y10	Z10	X11	Y11	Z11	X12	Y12	Z12	X13	Y13	Z13	X14	Y14	Z14	X15	Y15	Z15	X16	Y16	Z16	X17	Y17	Z17	X18	Y18	Z18	
56	0.466667	115.655	101.399	60.9226	111.333	108.995	28.0772	102.222	99.022	8.58974	86.7157	87.3946	-4.9079	120.178	73.8788	2.30299	111.203	90.4816	-14.4764	98.883	114.221	2.41649	105.998	64.82	-0.134987	92.7389	82.8243	-18.2405	83.2505	109.501	-1.64955	88.0852	64.6476	6.02223	75.6905	89.6272	0.191693	77.6661	97.1981	26.465	74.0849	62.0492	14.5362	65.1264	84.8689	9.26146	72.4732	94.3986	32.8689	93.021	53.7086	55.6115	92.3582	60.9393	80.983	116.55	69.0269	64.836	
57	0.475	101.983	104.876	63.1862	92.1926	115.489	29.7543	86.8202	112.34	5.09317	79.7373	98.2401	-7.12983	129.051	96.392	5.63738	109.089	106.113	-12.8816	87.3762	111.999	8.12814	118.605	77.1416	-2.69615	97.3038	93.4181	-17.9439	80.6864	99.1914	7.1565	101.03	65.9647	0.846856	81.0318	84.3532	-3.9623	78.5269	90.7168	24.8408	88.2805	56.026	4.61804	75.6779	75.8552	4.54644	74.9001	83.1405	32.7672	112.587	55.5239	49.8753	104.891	53.4812	72.1	121.25	75.4152	63.6075	
58	0.483333	88.1582	100.106	63.5598	72.0643	108.016	36.1912	69.4598	111.583	12.9011	74.4528	99.2214	-9.78956	118.046	118.171	13.6358	95.7072	122.649	-5.18137	75.79	109.797	10.8798	121.134	100.681	3.58258	93.681	99.8038	-13.5822	77.5222	94.6199	14.6625	113.768	84.8559	1.56583	86.1426	82.2367	-3.88862	77.3273	80.6022	20.424	109.216	63.8832	2.81098	85.1132	70.3389	2.35423	76.9746	71.335	27.9253	124.275	65.2447	48.6936	116.711	56.2398	74.0106	118.826	86.7892	68.8172	
59	0.491667	77.9546	85.7692	64.4498	60.597	92.0521	35.3242	66.3659	96.4604	11.4578	70.0968	95.4681	-9.01468	94.8654	130.288	24.5772	81.7598	123.665	1.09512	70.8583	96.7317	10.0766	108.036	117.027	8.41558	87.9802	104.674	-9.17974	77.3019	84.013	10.8855	114.678	97.6834	4.31935	91.6606	83.7536	-4.60558	84.2602	69.8232	17.4722	121.814	79.3074	6.32732	98.5218	70.2011	0.722385	88.7224	65.6791	23.147	127.973	85.0779	50.2643	124.588	65.3069	75.08	110.761	91.0038	74.2369	
60	0.5	69.8903	72.1732	64.1339	62.3649	77.6894	33.3902	59.6613	85.7965	10.6929	66.6995	90.9249	-12.724	79.0157	127.71	26.258	66.5486	115.598	3.01388	64.1612	86.9311	11.2625	94.0431	120.775	18.057	79.8727	106.633	-5.29099	80.5345	75.6387	14.0552	107.358	104.848	6.42211	93.5299	85.2942	-2.00668	89.9956	66.256	18.669	121.977	90.0435	10.3219	99.9342	75.9544	5.47201	96.5185	60.6479	22.1218	123.636	92.8089	56.7621	123.801	72.0126	76.7916	100.253	92.5668	75.425	
61	0.508333	68.5593	69.718	60.8944	55.8906	69.6151	31.3887	55.7115	80.8594	7.89537	67.1579	88.6917	-9.37868	67.8539	122.713	32.481	63.7668	112.824	3.1995	61.0332	85.9508	9.35859	88.9511	119.247	19.736	75.0365	103.221	-4.4547	76.0083	76.2171	11.9529	98.9999	108.083	12.7575	90.0126	88.9224	-0.795783	89.8597	66.4419	17.6515	113.269	96.8505	12.4518	103.586	78.6804	4.64344	95.6634	62.5628	28.84	116.582	96.3339	57.9762	119.773	75.3132	77.4248	90.2815	89.3785	77.8042	
62	0.516667	67.3563	71.6308	62.0879	58.2087	73.4393	31.0862	57.5704	85.4413	6.2522	66.7263	91.0962	-12.2659	70.4634	124.458	30.6684	64.4758	117.352	4.46188	61.5087	85.9286	10.232	86.4284	123.696	14.5945	75.5109	105.622	-4.49053	79.2942	76.7501	14.0426	102.873	109.17	12.6232	87.1118	86.8557	1.01838	89.7958	67.1815	23.3522	117.601	97.7652	12.5361	100.738	78.3071	6.97242	95.3998	67.2529	30.4843	116.013	96.881	60.1088	121.784	76.158	78.5579	92.2848	92.3012	75.0093	
63	0.525	69.8928	82.1	59.2987	60.4641	82.2275	28.8792	58.7241	88.9301	5.3012	71.2042	92.2146	-18.147	78.8148	129.792	22.7541	63.7081	118.565	-1.1612	67.9961	89.8195	8.38797	94.4175	123.69	10.1908	81.6532	108.133	-9.1319	81.9735	78.308	13.3065	108.39	108.108	7.04668	93.2549	87.1824	-3.02234	90.8219	71.0826	18.5493	120.301	94.8048	7.71211	102.089	80.5908	3.89711	95.951	67.4231	26.8218	122.579	102.789	53.2842	123.613	79.5317	75.0132	96.1594	99.8333	71.3426	
64	0.533333	75.5447	89.9574	55.094	60.9895	91.2439	19.8704	59.7353	90.3822	-1.32347	73.8196	88.3555	-24.8963	86.2172	133.058	7.77881	70.4793	116.39	-14.9214	69.0542	91.575	-0.123757	98.8612	121.424	-5.18003	86.142	100.728	-21.169	78.7541	80.7988	3.35096	111.549	101.948	-7.22502	91.4468	78.9178	-11.4108	87.1661	71.5156	11.0807	120.038	87.6599	-4.03547	100.297	72.5189	-3.71103	95.3159	64.7672	19.7373	129.946	100.335	37.64	128.731	83.826	63.8094	106.534	105.026	59.1603	
65	0.541667	77.7905	91.9051	30.5146	66.2799	84.5975	0.761814	63.5125	81.7128	-22.4569	73.8543	71.9167	-42.1557	94.0307	118.854	-24.3441	80.5826	98.5859	-43.106	71.714	80.633	-24.9326	106.34	101.308	-37.7166	88.4463	82.0231	-44.6921	80.1176	69.6143	-17.1514	111.386	85.103	-32.8121	91.6068	67.7747	-31.8171	86.968	62.9853	-4.52736	120.403	70.1212	-26.2674	100.707	55.8155	-20.4144	95.8237	58.4859	1.17144	132.944	89.9993	15.628	128.512	80.7215	42.9334	114.017	104.698	30.7427	
66	0.55	80.9221	74.5908	-1.84537	71.707	61.8652	-29.1413	71.8904	56.7874	-55.959	84.986	46.1367	-71.1796	99.779	92.0505	-62.408	86.3744	75.4761	-78.2666	77.9681	55.5794	-52.6534	113.354	78.4415	-65.9069	97.2135	54.5409	-75.4341	91.0765	45.635	-42.8361	121.462	59.6729	-64.4974	101.792	39.8621	-59.6393	95.6614	40.0237	-35.3468	131.742	48.9774	-53.1086	113.377	35.4954	-52.0293	105.245	35.8545	-24.9888	139.616	75.8105	-16.8945	134.068	69.623	11.4874	114.26	88.256	0.187904	
67	0.558333	89.1623	49.9224	-31.7417	85.0088	34.4368	-59.5745	90.6923	28.0787	-83.3677	98.9533	17.37	-100.117	112.942	66.5733	-92.4628	103.563	47.3771	-110.252	97.1801	26.7052	-89.3826	125.146	54.1573	-98.6554	118.619	29.803	-108.285	108.293	15.8957	-81.0058	142.08	40.5426	-87.7384	125.635	18.5854	-94.5503	114.496	12.333	-69.8426	152.757	27.8112	-77.2712	130.502	12.0992	-80.4797	120.288	10.0992	-59.6993	146.223	57.325	-40.4132	144.05	53.8415	-12.1299	119.058	70.2273	-32.3812	
68	0.566667	103.76	27.3852	-54.2902	102.019	10.87	-78.0218	101.394	1.0173	-103.582	112.913	-8.40515	-121.076	131.134	44.4262	-111.519	132.483	29.1808	-135.677	119.515	3.24453	-126.37	151.675	36.1488	-119.242	148.17	14.3125	-134.358	134.589	-9.73672	-116.759	165.993	24.6736	-107.029	154.896	4.06355	-120.97	137.893	-12.5966	-102.532	174.357	14.0668	-94.1112	164.493	-1.22307	-105.921	142.74	-13.4759	-91.8325	157.327	41.0302	-59.2951	154.419	40.1952	-35.4156	134.908	49.4771	-54.9375	
69	0.575	120.99	12.3011	-71.4195	115.18	-6.73505	-89.9945	114.564	-18.7604	-114.559	118.802	-30.8409	-127.583	147.047	24.9648	-130.202	152.7	11.6957	-151.961	148.454	-15.4755	-156.313	169.502	21.1234	-128.024	173.732	3.85826	-150.68	170.305	-28.6391	-148.11	184.522	12.2934	-113.287	184.028	-4.33343	-134.616	176.221	-32.4401	-133.37	193.121	2.32132	-101.904	197.623	-14.2565	-114.047	182.908	-33.2736	-118.521	173.099	26.4337	-73.5936	159.933	30.3342	-46.987	141.55	33.6063	-68.3058	
70	0.583333	126.797	3.3187	-74.1206	121.205	-18.3974	-94.107	114.522	-31.6611	-113.871	116.965	-45.1324	-128.894	161.49	6.3308	-135.183	164.958	-5.26721	-156.037	165.09	-30.5202	-170.465	183.28	4.41911	-128.768	186.575	-7.19584	-152.222	193.867	-34.0258	-163.886	192.336	-1.80856	-115.807	199.185	-14.6445	-136.649	197.377	-37.0073	-149.509	203.359	-9.8906	-101.78	209.922	-25.8447	-115.691	207.116	-38.8193	-127.435	180.787	13.8496	-78.6016	169.642	21.1815	-56.2111	152.434	25.7414	-77.5809	
71	0.591667	126.956	0.0265438	-72.118	116.083	-20.2305	-88.9989	117.858	-35.474	-109.24	113.556	-49.5287	-125.776	159.549	-1.34445	-130.091	167.996	-15.5088	-150.371	167.101	-29.7136	-166.669	180.356	-5.98562	-129.391	186.543	-16.2377	-147.13	193.759	-37.977	-167.893	193.48	-11.7519	-113.213	202.307	-24.2855	-129.22	204.07	-40.3294	-150.057	202.603	-19.0665	-93.1847	207.306	-28.7356	-108.864	211.8	-41.2663	-121.364	181.331	10.3418	-72.0652	168.489	17.4082	-48.058	151.561	18.7091	-70.9274	
72	0.6	114.735	8.06303	-58.6913	105.274	-12.2393	-82.9135	104.626	-25.0193	-102.117	102.155	-37.88	-117.773	145.203	5.10157	-118.604	149.562	-9.44737	-143.691	150.195	-25.9033	-159.677	164.789	-2.04124	-120.636	171.17	-14.5261	-140.972	172.263	-29.9209	-160.023	176.823	-7.61807	-105.569	180.788	-20.4906	-127.818	186.982	-35.1644	-143.313	185.619	-15.6449	-88.2925	190.315	-29.0251	-106.893	198.493	-39.6356	-120.537	169.187	13.1012	-65.225	162.935	19.3706	-44.3161	140.666	24.4562	-67.0389	
73	0.608333	90.278	24.208	-45.9452	73.1551	7.96156	-65.5959	74.7107	-4.07632	-85.9908	72.8399	-14.4719	-103.45	111.324	24.2176	-107.416	108.268	12.8464	-130.444	107.8	-3.11143	-146.395	130.317	16.8232	-109.957	132.483	5.50124	-129.439	131.224	-11.7662	-151.141	143.528	8.44741	-96.9931	148.68	-4.79066	-119.868	146.47	-17.8422	-137.071	156.336	-3.4436	-81.465	160.283	-15.4463	-98.3304	163.259	-24.088	-117.157	140.627	24.9684	-57.2763	137.304	31.2548	-29.9658	115.384	39.1451	-48.6164	
74	0.616667	61.4015	37.6965	-20.6823	45.1582	24.3583	-43.3124	40.4312	15.3434	-61.7748	39.8758	4.567	-81.4123	72.4346	42.2603	-85.9099	67.7051	31.1651	-110.262	66.1564	14.4958	-124.803	91.488	35.2595	-92.2106	92.1844	23.5945	-114.772	89.4167	9.24524	-134.023	108.019	26.5835	-81.3243	107.32	13.1243	-107.652	104.066	4.65698	-121.319	122.149	14.0223	-69.1078	122.971	3.06593	-89.0871	121.542	-3.88326	-106.386	112.67	39.6128	-41.5932	110.477	44.1822	-12.0006	87.0433	54.4187	-31.3471	
75	0.625	40.3728	44.0886	2.96882	21.4296	31.5958	-14.6641	14.245	23.6128	-34.8636	9.58045	14.4925	-58.7191	44.1976	50.9456	-64.1119	37.9049	40.6076	-84.9761	30.1999	26.1393	-101.811	62.6498	47.9223	-67.5337	59.0432	37.1408	-94.418	55.3986	19.3512	-116.46	82.5031	36.5238	-66.9317	78.3116	29.8981	-84.2021	74.5527	17.4029	-103.582	98.661	26.308	-51.0145	99.3452	18.0005	-67.5573	98.7221	10.1096	-88.5531	90.5742	49.3879	-21.6127	90.8122	50.8945	6.84073	63.9541	63.6822	-7.85698	
76	0.633333	33.1573	36.1365	21.1655	13.7723	23.4817	-2.29295	7.38495	15.3428	-19.898	-1.9273	6.83366	-38.4869	35.8971	45.9006	-44.4323	23.7376	36.384	-66.5391	20.6752	17.3848	-87.4651	51.6084	42.9706	-53.7588	49.3353	32.7029	-78.3435	43.1759	17.8693	-97.631	70.3604	34.9131	-48.2743	68.4571	25.9091	-73.374	64.1611	15.7746	-89.3399	88.1123	25.0078	-37.8724	89.3204	18.1141	-54.6807	87.4138	12.5264	-76.459	79.0389	45.2429	-1.82428	85.0399	48.7463	18.5911	57.0188	55.7914	12.9258	
